<?xml version="1.0" ?><svg height="60px" version="1.1" viewBox="0 0 60 60" width="60px" xmlns="http://www.w3.org/2000/svg" xmlns:xlink="http://www.w3.org/1999/xlink"><title/><desc/><defs><polygon id="path-1" points="2.71050543e-20 -7.10542736e-15 2.71050543e-20 12 5.6396 12 5.6396 0 0 0"/></defs><g fill="none" fill-rule="evenodd" id="NGO" stroke="none" stroke-width="1"><g fill="#FFFFFF" fill-opacity="0" id="canvas" transform="translate(-421.000000, -180.000000)"><rect height="660" width="660" x="0" y="0"/></g><g id="group-force"><g id="fill" transform="translate(1.000000, 1.000000)"><path d="M40,38 L40,19.5 L40.05,19.45 C41.69,21.23 43.92,24 48,24 C52,24 52,23 52,23 L52,38 C52,38.54 52.15,39.23 52.36,40 C52.94,42.09 54,44.81 54,47 L54,52 L54,56 C54,57.1 53.1,58 52,58 C50.9,58 50,57.1 50,56 C50,57.1 49.1,58 48,58 C46.9,58 46,57.1 46,56 C46,57.1 45.1,58 44,58 C42.9,58 42,57.1 42,56 C42,57.1 41.1,58 40,58 C38.9,58 38,57.1 38,56 L38,52 C36.58,52.96 35,52 35,52 C35,52 34,52 34,48 C34,43.92 36.77,41.69 38.55,40.05 C39.39,39.28 40,38.64 40,38 Z M52,0 L52,4 L47,4 C44.81,4 42.09,5.06 40,5.64 L40,0 L52,0 Z" fill="#FFD0A1" id="Combined-Shape"/><path d="M38,18 L19.5,18 L19.45,17.95 C21.23,16.31 24,14.08 24,10 C24,6 23,6 23,6 L38,6 C38.54,6 39.23,5.85 40,5.64 C42.09,5.06 44.81,4 47,4 L52,4 L56,4 C57.1,4 58,4.9 58,6 C58,7.1 57.1,8 56,8 C57.1,8 58,8.9 58,10 C58,11.1 57.1,12 56,12 C57.1,12 58,12.9 58,14 C58,15.1 57.1,16 56,16 C57.1,16 58,16.9 58,18 C58,19.1 57.1,20 56,20 L52,20 C52.96,21.42 52,23 52,23 C52,23 52,24 48,24 C43.92,24 41.69,21.23 40.05,19.45 C39.28,18.61 38.64,18 38,18 Z M5.6396,18 L-0.0004,18 L-0.0004,6 L3.9996,6 L3.9996,11 C3.9996,13.19 5.0596,15.91 5.6396,18 Z" fill="#AE938D" id="Combined-Shape"/><path d="M6,38 C5.04,36.58 6,35 6,35 C6,35 6,34 10,34 C14.08,34 16.31,36.77 17.95,38.55 C18.72,39.39 19.36,40 20,40 L38.5,40 L38.55,40.05 C36.77,41.69 34,43.92 34,48 C34,52 35,52 35,52 L20,52 C19.46,52 18.77,52.15 18,52.36 C15.91,52.94 13.19,54 11,54 L6,54 L2,54 C0.9,54 0,53.1 0,52 C0,50.9 0.9,50 2,50 C0.9,50 0,49.1 0,48 C0,46.9 0.9,46 2,46 C0.9,46 0,45.1 0,44 C0,42.9 0.9,42 2,42 C0.9,42 0,41.1 0,40 C0,38.9 0.9,38 2,38 L6,38 Z M58,40 L58,52 L54,52 L54,47 C54,44.81 52.94,42.09 52.36,40 L58,40 Z" fill="#F2EDDA" id="Combined-Shape"/><path d="M18,52.3599 L18,57.9999 L6,57.9999 L6,53.9999 L11,53.9999 C13.19,53.9999 15.91,52.9399 18,52.3599 Z M20,6 C21.42,5.04 23,6 23,6 C23,6 24,6 24,10 C24,14.08 21.23,16.31 19.45,17.95 C18.61,18.72 18,19.36 18,20 L18,38.5 L17.95,38.55 C16.31,36.77 14.08,34 10,34 C6,34 6,35 6,35 L6,20 C6,19.46 5.85,18.77 5.64,18 C5.06,15.91 4,13.19 4,11 L4,6 L4,2 C4,0.9 4.9,0 6,0 C7.1,0 8,0.9 8,2 C8,0.9 8.9,0 10,0 C11.1,0 12,0.9 12,2 C12,0.9 12.9,0 14,0 C15.1,0 16,0.9 16,2 C16,0.9 16.9,0 18,0 C19.1,0 20,0.9 20,2 L20,6 Z" fill="#FFD0A1" id="Combined-Shape"/><g id="Group-13" transform="translate(0.000000, 6.000000)"><mask fill="white" id="mask-2"><use xlink:href="#path-1"/></mask><g id="Clip-12"/></g></g><path d="M19,53.359 L19,59 M7,55 L7,59 M7,36 C7,36 7,35 11,35 C17,35 19,41 21,41 L34,41 M11,39 L3,39 C1.896,39 1,39.895 1,41 C1,42.104 1.896,43 3,43 C1.896,43 1,43.895 1,45 C1,46.104 1.896,47 3,47 C1.896,47 1,47.895 1,49 C1,50.104 1.896,51 3,51 C1.896,51 1,51.895 1,53 C1,54.104 1.896,55 3,55 L12,55 C15,55 19,53 21,53 L31,53 M53.359,41 L59,41 M55,53 L59,53 M36,53 C36,53 35,53 35,49 C35,43 41,41 41,39 L41,26 M39,49 L39,57 C39,58.104 39.896,59 41,59 C42.104,59 43,58.104 43,57 C43,58.104 43.896,59 45,59 C46.104,59 47,58.104 47,57 C47,58.104 47.896,59 49,59 C50.104,59 51,58.104 51,57 C51,58.104 51.896,59 53,59 C54.104,59 55,58.104 55,57 L55,48 C55,45 53,41 53,39 L53,29 M41,6.64 L41,1 M53,5 L53,1 M53,24 C53,24 53,25 49,25 C43,25 41,19 39,19 L26,19 M49,21 L57,21 C58.104,21 59,20.104 59,19 C59,17.895 58.104,17 57,17 C58.104,17 59,16.104 59,15 C59,13.895 58.104,13 57,13 C58.104,13 59,12.104 59,11 C59,9.895 58.104,9 57,9 C58.104,9 59,8.104 59,7 C59,5.895 58.104,5 57,5 L48,5 C45,5 41,7 39,7 L29,7 M6.641,19 L1,19 M5,7 L1,7 M24,7 C24,7 25,7 25,11 C25,17 19,19 19,21 L19,34 M7,31 L7,21 C7,19 5,15 5,12 L5,3 C5,1.895 5.896,1 7,1 C8.104,1 9,1.895 9,3 C9,1.895 9.896,1 11,1 C12.104,1 13,1.895 13,3 C13,1.895 13.896,1 15,1 C16.104,1 17,1.895 17,3 C17,1.895 17.896,1 19,1 C20.104,1 21,1.895 21,3 L21,11" id="stroke" stroke="#51565F" stroke-linecap="round" stroke-linejoin="round"/></g></g></svg>