<?xml version="1.0" ?><svg height="60px" version="1.1" viewBox="0 0 60 60" width="60px" xmlns="http://www.w3.org/2000/svg" xmlns:xlink="http://www.w3.org/1999/xlink"><title/><desc/><defs/><g fill="none" fill-rule="evenodd" id="NGO" stroke="none" stroke-width="1"><g fill="#FFFFFF" fill-opacity="0" id="canvas" transform="translate(-181.000000, -300.000000)"><rect height="660" width="660" x="0" y="0"/></g><g id="hand-take-love"><g id="fill" transform="translate(1.000000, 1.000000)"><path d="M6.0601,34.8301 C6.0601,34.1301 6.3201,33.4401 6.8801,32.8801 C8.0501,31.7101 9.8301,31.8301 11.0001,33.0001 L18.0001,40.0001 C18.0001,40.0001 20.0001,41.7301 20.0001,45.0001 L20.0001,54.0001 L12.0001,54.0001 C12.0001,51.0001 10.0001,49.0001 10.0001,49.0001 L2.0001,41.0001 C2.0001,41.0001 0.0001,39.3101 0.0001,36.0001 L0.0001,21.0001 C0.0001,19.3401 1.3401,18.0001 3.0001,18.0001 C4.6601,18.0001 6.0001,19.3401 6.0001,21.0001 L6.0001,34.8301 L6.0601,34.8301 Z M52,34.8301 L52,21.0001 C52,19.3401 53.34,18.0001 55,18.0001 C56.66,18.0001 58,19.3401 58,21.0001 L58,36.0001 C58,39.3101 56,41.0001 56,41.0001 L48,49.0001 C48,49.0001 46,51.0001 46,54.0001 L38,54.0001 L38,45.0001 C38,41.7301 40,40.0001 40,40.0001 L47,33.0001 C48.17,31.8301 49.95,31.7101 51.12,32.8801 C51.68,33.4401 51.94,34.1301 51.94,34.8301 L52,34.8301 Z" fill="#FFD0A1" id="Combined-Shape"/><path d="M28.6099,3.27 C30.4399,1.26 33.0699,0 35.9999,0 C41.5199,0 45.9999,4.48 45.9999,10 C45.9999,16 39.9999,26 28.9999,32 C17.9999,26 11.9999,16 11.9999,10 C11.9999,4.48 16.4799,0 21.9999,0 C23.4199,0 24.7799,0.3 25.9999,0.83 C25.9999,0.83 27.8499,1.83 28.4799,3.15 L28.6099,3.27 Z" fill="#FF7474" id="Fill-3"/><path d="M22,54 L22,58 L6,58 L6,54 L12,54 L20,54 L22,54 Z M52,54 L52,58 L36,58 L36,54 L38,54 L46,54 L52,54 Z" fill="#AAB1BA" id="Combined-Shape"/></g><path d="M42.658,8.998 C42.054,7.296 40.708,5.948 39.008,5.344 M27.005,1.835 C25.779,1.298 24.424,1 23,1 C17.477,1 13,5.477 13,11 C13,17 19,27 30,33 C41,27 47,17 47,11 C47,5.477 42.523,1 37,1 C32.985,1 29.522,3.367 27.931,6.781 M53,59 L53,55 L37,55 L37,59 M47,43 L52,38 C53.174,36.829 53.293,35.051 52.121,33.879 C50.949,32.707 49.172,32.829 48,34 L41,41 C41,41 39,42.735 39,46 L39,51 M49,50 L57,42 C57,42 59,40.313 59,37 L59,22 C59,20.344 57.658,19 56,19 C54.344,19 53,20.344 53,22 L53,29.917 M23,59 L23,55 L7,55 L7,59 M21,51 L21,46 C21,42.735 19,41 19,41 L12,34 C10.829,32.829 9.052,32.707 7.879,33.879 C6.707,35.051 6.827,36.829 8,38 L13,43 M11,50 L3,42 C3,42 1,40.313 1,37 L1,22 C1,20.344 2.343,19 4,19 C5.658,19 7,20.344 7,22 L7,29.917" id="stroke" stroke="#51565F" stroke-linecap="round" stroke-linejoin="round"/></g></g></svg>